<svg width="74" height="96" viewBox="0 0 74 96" fill="none" xmlns="http://www.w3.org/2000/svg">
<path fill-rule="evenodd" clip-rule="evenodd" d="M0 11.5289C0 5.16168 5.17031 0 11.5482 0H62.232C68.6099 0 73.7802 5.16168 73.7802 11.5289V28.8223C73.7802 31.6522 71.4823 33.9463 68.6477 33.9463C65.813 33.9463 63.5151 31.6522 63.5151 28.8223V11.5289C63.5151 10.8215 62.9407 10.2479 62.232 10.2479H11.5482C10.8396 10.2479 10.2651 10.8215 10.2651 11.5289V40.9769C10.2651 41.9825 11.3726 42.596 12.2273 42.0638L30.7785 30.5121C34.5189 28.1829 39.2613 28.1829 43.0017 30.512L68.3436 46.2923C71.7252 48.398 73.7802 52.0956 73.7802 56.0744V84.3853C73.7802 90.7526 68.6099 95.9143 62.232 95.9143H11.5482C5.17031 95.9143 0 90.7526 0 84.3853V68.9334C0 66.1035 2.29791 63.8094 5.13254 63.8094C7.96716 63.8094 10.2651 66.1035 10.2651 68.9334V84.3853C10.2651 85.0928 10.8396 85.6663 11.5482 85.6663H31.7576V57.7247C31.7576 54.8948 34.0555 52.6007 36.8901 52.6007C39.7247 52.6007 42.0226 54.8948 42.0226 57.7247V85.6663H62.232C62.9407 85.6663 63.5151 85.0928 63.5151 84.3853V56.0744C63.5151 55.6323 63.2868 55.2215 62.9111 54.9875L37.5692 39.2072C37.1536 38.9484 36.6266 38.9484 36.211 39.2072L17.6598 50.759C9.96782 55.5488 0 50.0274 0 40.9769V11.5289Z" fill="#3DD47E"/>
</svg>
